# xmcd
#
# Track frame offsets:
#	183
#	11453
#	30578
#	42408
#	54598
#	66223
#	82125
#	97035
#	113878
#	131740
#	143810
#	157408
#	169580
#
# Disc length: 2591 seconds
# Revision: 0
# Processed by: cddbd v1.5.2PL0 Copyright (c) Steve Scherf et al.
# Submitted via: dBpowerAMP V12.0
#
DISCID=b70a1d0d
DTITLE=Acoustic Riders - Real real Gone
DYEAR=1994
DGENRE=
TTITLE0=Rollin' Stone
TTITLE1=Real Real Gone
TTITLE2=Walk It Like You Talk It
TTITLE3=You Got Money
TTITLE4=I Got Your Number
TTITLE5=Two Forty-Five
TTITLE6=Tribute To Flaco
TTITLE7=I Told You No Lies
TTITLE8=Dos Hermanos
TTITLE9=Good Old Country Music
TTITLE10=Mighty Like A Rose
TTITLE11=Sittin' On Top Of The World
TTITLE12=Under The High Montana Sky
EXTD=
EXTT0=
EXTT1=
EXTT2=
EXTT3=
EXTT4=
EXTT5=
EXTT6=
EXTT7=
EXTT8=
EXTT9=
EXTT10=
EXTT11=
EXTT12=
PLAYORDER=
